<svg xmlns="http://www.w3.org/2000/svg" width="1400" height="560" viewBox="0 0 1400 560">
  <defs>
    <linearGradient id="bg" x1="0" y1="0" x2="1" y2="1">
      <stop offset="0%" stop-color="#f7efe5"/>
      <stop offset="55%" stop-color="#efe1cf"/>
      <stop offset="100%" stop-color="#e4c7a7"/>
    </linearGradient>
    <linearGradient id="panel" x1="0" y1="0" x2="1" y2="1">
      <stop offset="0%" stop-color="#fffdf9" stop-opacity="0.92"/>
      <stop offset="100%" stop-color="#fff7ef" stop-opacity="0.72"/>
    </linearGradient>
    <linearGradient id="accent" x1="0" y1="0" x2="1" y2="0">
      <stop offset="0%" stop-color="#cf5e2d"/>
      <stop offset="100%" stop-color="#8d3a1f"/>
    </linearGradient>
    <filter id="shadow" x="-20%" y="-20%" width="140%" height="140%">
      <feDropShadow dx="0" dy="28" stdDeviation="32" flood-color="#7d4b27" flood-opacity="0.18"/>
    </filter>
  </defs>

  <rect width="1400" height="560" fill="url(#bg)"/>
  <circle cx="1170" cy="96" r="160" fill="#ffffff" fill-opacity="0.28"/>
  <circle cx="1280" cy="440" r="220" fill="#cb6b3b" fill-opacity="0.14"/>
  <circle cx="182" cy="474" r="124" fill="#ffffff" fill-opacity="0.26"/>

  <g filter="url(#shadow)">
    <rect x="56" y="54" width="1288" height="452" rx="34" fill="url(#panel)" stroke="#d5bca4"/>
  </g>

  <rect x="104" y="108" width="192" height="36" rx="18" fill="#fff4ea" stroke="#d8b395"/>
  <text x="132" y="132" font-family="Arial, sans-serif" font-size="16" font-weight="700" letter-spacing="2" fill="#9a4b28">AUTONOMOUS DEV AGENT</text>

  <text x="104" y="222" font-family="Georgia, serif" font-size="74" font-weight="700" fill="#231b14">NaveenCodes</text>
  <text x="104" y="304" font-family="Georgia, serif" font-size="74" font-weight="700" fill="#231b14">Command Center</text>
  <text x="104" y="360" font-family="Arial, sans-serif" font-size="28" fill="#6e5642">Build, analyze, fix, test, and automate the web with</text>
  <text x="104" y="398" font-family="Arial, sans-serif" font-size="28" fill="#6e5642">multi-provider AI, CDP actions, BYOK security, and browser extensions.</text>

  <rect x="104" y="438" width="248" height="18" rx="9" fill="url(#accent)"/>

  <g transform="translate(860 118)">
    <rect x="0" y="0" width="388" height="284" rx="28" fill="#fffaf4" stroke="#dfc5ac"/>
    <rect x="26" y="24" width="336" height="46" rx="14" fill="#f4e6d7"/>
    <circle cx="52" cy="47" r="7" fill="#cf5e2d"/>
    <circle cx="76" cy="47" r="7" fill="#dfab53"/>
    <circle cx="100" cy="47" r="7" fill="#7f9c58"/>
    <text x="126" y="54" font-family="Arial, sans-serif" font-size="16" font-weight="700" fill="#5f4838">Execution Pipeline</text>

    <rect x="28" y="92" width="152" height="54" rx="16" fill="#fff" stroke="#e4cfba"/>
    <rect x="208" y="92" width="152" height="54" rx="16" fill="#fff" stroke="#e4cfba"/>
    <rect x="28" y="174" width="152" height="54" rx="16" fill="#fff" stroke="#e4cfba"/>
    <rect x="208" y="174" width="152" height="54" rx="16" fill="#fff" stroke="#e4cfba"/>

    <text x="48" y="124" font-family="Arial, sans-serif" font-size="18" font-weight="700" fill="#2d241d">AI Routing</text>
    <text x="228" y="124" font-family="Arial, sans-serif" font-size="18" font-weight="700" fill="#2d241d">CDP Actions</text>
    <text x="48" y="206" font-family="Arial, sans-serif" font-size="18" font-weight="700" fill="#2d241d">BYOK Vault</text>
    <text x="228" y="206" font-family="Arial, sans-serif" font-size="18" font-weight="700" fill="#2d241d">Extensions</text>

    <path d="M180 118 H208" stroke="#cb6b3b" stroke-width="4" stroke-linecap="round"/>
    <path d="M104 146 V174" stroke="#cb6b3b" stroke-width="4" stroke-linecap="round"/>
    <path d="M284 146 V174" stroke="#cb6b3b" stroke-width="4" stroke-linecap="round"/>
  </g>
</svg>
